<?xml version="1.0" encoding="utf-8"?>
<!-- Svg Vector Icons : http://www.onlinewebfonts.com/icon -->
<!DOCTYPE svg PUBLIC "-//W3C//DTD SVG 1.1//EN" "http://www.w3.org/Graphics/SVG/1.1/DTD/svg11.dtd">
<svg version="1.1" xmlns="http://www.w3.org/2000/svg" xmlns:xlink="http://www.w3.org/1999/xlink" x="0px" y="0px" viewBox="0 0 1000 1000" enable-background="new 0 0 1000 1000" xml:space="preserve">
<metadata> Svg Vector Icons : http://www.onlinewebfonts.com/icon </metadata>
<g><path d="M491.8,586.1c150.2,0,271.9-121.3,271.9-271c0-149.6-121.8-270.9-271.9-270.9c-150.1,0-271.9,121.3-271.9,270.9C219.9,464.7,341.7,586.1,491.8,586.1z"/><path d="M628,627.6c-3.1,23.4-19,134.6-42.5,178.3h-65.8V662.6h39.5V622h-53.9h-13.2h-53.8v40.6h39.5v143.3h-65.8c-23.3-43.3-39.1-153-42.4-177.7C196,670.8,59,796.1,10,955.9h980C940.8,795.4,802.7,669.5,628,627.6z"/></g>
</svg>